<?xml version="1.0" standalone="no"?>
<!DOCTYPE svg PUBLIC "-//W3C//DTD SVG 20010904//EN"
 "http://www.w3.org/TR/2001/REC-SVG-20010904/DTD/svg10.dtd">
<svg version="1.0" xmlns="http://www.w3.org/2000/svg"
 width="1000.000000pt" height="1000.000000pt" viewBox="0 0 1000.000000 1000.000000"
 preserveAspectRatio="xMidYMid meet">

<g transform="translate(0.000000,1000.000000) scale(0.100000,-0.100000)"
fill="#000000" stroke="none">
<path d="M4720 7908 c-111 -9 -386 -51 -396 -60 -3 -4 20 -55 53 -117 1 -2 35
4 75 13 156 33 253 41 518 40 272 -1 344 -7 555 -53 101 -21 287 -75 313 -90
11 -7 -105 -10 -359 -11 -315 0 -383 -3 -413 -15 -20 -9 -34 -20 -31 -25 4 -6
187 -10 486 -10 l479 0 67 -32 c87 -40 261 -136 292 -160 23 -18 9 -18 -567
-18 -383 0 -593 -4 -597 -10 -3 -5 3 -10 15 -10 12 0 18 -4 15 -10 -4 -7 201
-10 607 -10 l613 0 36 -23 c20 -12 75 -53 124 -92 l87 -70 -626 -3 c-405 -1
-625 -6 -621 -12 4 -6 -5 -8 -22 -5 -15 2 -70 7 -121 10 l-94 6 7 -33 c4 -18
9 -43 12 -55 5 -23 5 -23 -38 -8 -24 9 -51 22 -60 31 -16 14 -18 14 -24 -5 -3
-11 -18 -30 -32 -41 l-26 -20 893 0 893 0 58 -62 57 -63 -861 -5 c-856 -5
-862 -5 -806 -24 40 -12 70 -32 100 -63 43 -43 43 -44 15 -37 -27 6 -26 5 18
-40 l47 -46 827 0 827 0 44 -68 c24 -37 51 -78 61 -92 44 -65 165 -325 216
-464 27 -73 65 -208 90 -321 22 -101 54 -306 54 -347 0 -16 -13 -18 -140 -18
l-140 0 0 75 0 75 -30 0 c-28 0 -30 3 -30 35 l0 35 -155 0 -155 0 0 -35 c0
-28 -4 -35 -20 -35 -19 0 -20 7 -20 140 l0 140 -59 0 c-50 0 -59 3 -64 20 -4
16 -14 20 -47 20 -33 0 -43 -4 -47 -20 -3 -11 -12 -20 -19 -20 -12 0 -14 -38
-14 -210 l0 -210 -30 0 c-28 0 -30 3 -30 35 0 28 -4 35 -20 35 -18 0 -20 7
-20 85 0 69 -3 85 -15 85 -13 0 -15 22 -15 135 0 113 -2 135 -15 135 -12 0
-15 14 -15 65 l0 65 -75 0 -75 0 0 -65 c0 -63 -1 -65 -25 -65 -18 0 -25 -5
-25 -19 0 -10 -7 -21 -15 -25 -12 -4 -15 -30 -15 -141 0 -113 -2 -135 -15
-135 -12 0 -15 14 -15 65 l0 65 -185 0 -185 0 0 -95 0 -95 -45 0 c-41 0 -45 2
-45 25 0 23 -4 25 -40 25 -38 0 -40 -2 -40 -30 0 -29 -1 -30 -50 -30 l-50 0 0
50 0 50 -45 0 c-41 0 -45 2 -45 25 0 23 -4 25 -45 25 -41 0 -45 -2 -45 -25 l0
-25 -100 0 -100 0 0 -100 0 -100 -212 0 c-120 0 -220 5 -228 10 -13 8 -12 10
4 10 14 0 16 3 7 13 -14 17 -4 27 26 27 24 0 31 15 11 23 -7 3 14 6 47 6 43 1
56 4 45 11 -12 8 -10 10 8 10 35 0 17 18 -26 26 -20 4 -47 14 -59 22 -23 14
-80 13 -118 -3 -15 -7 -12 2 15 35 19 25 37 47 40 50 11 11 57 76 64 90 3 8 4
0 1 -17 -2 -18 0 -33 5 -33 17 0 57 65 70 113 8 29 10 72 7 110 l-6 62 29 -60
c15 -33 31 -68 34 -77 11 -34 26 -18 26 27 0 32 -11 70 -36 122 -26 56 -34 84
-29 102 4 14 10 60 14 101 6 73 6 74 22 50 9 -14 19 -35 23 -47 4 -13 12 -23
17 -23 15 0 10 67 -10 119 -18 49 -18 49 0 38 11 -7 22 -20 25 -29 9 -29 24
-21 24 12 0 38 -22 92 -49 122 -12 12 -21 26 -21 31 0 13 42 -3 67 -26 13 -11
26 -17 30 -13 12 12 -27 71 -60 92 l-32 19 40 6 c39 5 39 6 15 16 -14 6 -45
14 -70 18 -36 6 -41 9 -25 16 46 18 74 10 120 -36 54 -55 77 -106 73 -162 -3
-35 -1 -40 13 -32 22 11 29 32 29 82 l1 42 26 -30 26 -29 -5 37 c-2 20 -1 37
3 37 17 0 59 -72 67 -116 l8 -49 18 40 c14 32 15 47 7 74 -6 19 -8 37 -6 39 6
6 53 -49 60 -70 4 -10 11 -18 17 -18 7 0 9 17 5 50 -5 45 -4 49 11 41 9 -5 27
-21 40 -36 13 -15 25 -25 28 -22 11 10 -29 77 -65 110 -23 20 -39 37 -36 37 9
0 49 -24 72 -44 40 -34 45 -12 8 37 -38 50 -125 119 -178 142 -18 8 -27 14
-20 15 21 0 127 -42 146 -58 32 -28 19 8 -15 40 -35 33 -161 98 -190 98 -9 0
-20 5 -24 11 -5 9 12 10 66 5 91 -9 86 5 -12 30 -76 20 -266 26 -338 12 -40
-8 -16 4 40 20 l35 10 -30 1 c-16 0 -70 -8 -120 -18 -89 -19 -90 -19 -110 0
-14 14 -15 19 -5 15 8 -2 30 -7 49 -10 29 -5 33 -3 29 12 -4 15 -1 18 21 14
l26 -5 -24 27 c-29 31 -14 34 31 6 18 -11 37 -20 41 -20 11 0 -13 42 -36 63
-11 9 -17 20 -13 24 6 6 21 2 79 -22 30 -13 19 21 -18 53 -41 36 -28 55 15 23
28 -20 29 -20 35 -1 4 11 3 30 0 43 -6 17 -5 20 5 10 7 -7 16 -29 19 -50 l6
-38 24 33 c13 18 25 51 28 72 7 49 18 44 27 -10 8 -51 26 -43 26 11 0 21 2 39
5 39 13 0 62 -30 74 -44 8 -9 17 -16 22 -16 17 0 9 22 -20 51 -32 32 -31 33
44 31 l40 -2 -48 23 c-47 22 -48 23 -25 34 13 6 46 19 73 29 98 34 73 47 -37
18 -33 -8 -62 -13 -65 -11 -2 3 6 14 18 26 l23 21 -27 0 c-15 0 -43 -7 -63
-15 -46 -19 -35 -4 26 36 28 18 48 34 46 37 -8 7 -79 -20 -118 -45 -21 -12
-40 -23 -44 -23 -3 0 -25 -14 -48 -32 -34 -27 -38 -28 -21 -8 11 14 33 40 49
58 17 17 24 32 17 32 -11 0 -98 -54 -111 -69 -3 -3 -30 -25 -60 -49 -30 -23
-75 -63 -100 -87 -52 -52 -79 -62 -120 -45 -52 22 -31 40 46 40 24 0 44 4 44
9 0 5 -15 19 -34 32 -19 13 -32 27 -30 31 3 4 32 8 65 8 61 0 77 13 37 30 -20
8 -18 9 15 9 41 1 48 14 17 33 -33 21 -23 28 41 28 33 0 58 4 55 9 -3 5 -32
21 -63 37 l-58 28 55 8 c78 12 91 18 60 30 -24 10 -24 11 18 22 41 11 42 12
25 29 -17 18 -16 19 34 15 59 -3 56 6 -10 35 l-42 18 73 -4 c79 -5 94 10 30
28 -48 13 -55 22 -26 31 12 4 51 20 85 35 33 16 66 29 72 29 5 0 13 5 17 12 5
8 -12 10 -67 5 -41 -3 -85 -9 -99 -13 -22 -7 -24 -6 -12 9 12 14 11 15 -15 8
-42 -13 -86 -33 -108 -50 -19 -16 -19 -15 -2 12 19 30 16 33 -16 16 -25 -14
-68 -57 -114 -114 -29 -38 -31 -38 -26 -12 3 15 9 30 14 33 5 3 9 13 9 22 -1
37 -68 -59 -94 -136 -26 -75 -59 -146 -133 -287 -43 -80 -52 -70 -34 40 10 68
1 220 -20 310 -28 122 -103 279 -154 323 -54 48 -60 39 -20 -31 48 -86 47
-112 -2 -64 -58 59 -129 89 -199 85 l-59 -3 48 -14 c26 -7 50 -18 54 -24 4 -7
-2 -8 -18 -3 -51 16 -165 17 -224 3 l-60 -14 69 -12 c94 -17 103 -25 31 -31
l-60 -5 58 -14 c55 -12 167 -57 167 -67 0 -2 -11 -2 -24 2 -14 3 -32 1 -42 -4
-14 -8 -12 -11 17 -21 19 -6 54 -25 79 -41 42 -28 43 -30 18 -30 -63 0 -77
-24 -19 -34 21 -3 49 -15 62 -25 l24 -20 -35 5 c-19 3 -51 2 -70 -3 l-35 -10
52 -11 c56 -13 176 -63 186 -79 3 -5 -33 -1 -81 9 -97 19 -140 22 -161 9 -9
-6 8 -15 56 -30 65 -20 150 -67 140 -78 -3 -2 -48 -1 -100 3 l-95 7 -35 51
c-19 28 -53 87 -75 131 -22 44 -52 91 -67 105 l-28 25 6 -31 c3 -18 9 -45 13
-60 7 -29 7 -29 -13 -11 -12 10 -33 38 -49 63 -40 63 -56 58 -29 -10 6 -14 -5
-9 -45 18 -32 22 -64 36 -82 36 l-31 0 37 -29 c20 -16 46 -41 57 -55 l21 -26
-25 9 c-13 5 -42 19 -63 30 -27 15 -57 21 -101 21 -35 0 -63 -3 -63 -7 1 -5
23 -19 51 -32 56 -26 60 -36 8 -21 -42 12 -166 13 -173 1 -3 -5 10 -12 29 -15
20 -4 54 -15 77 -25 l43 -18 -57 -6 c-63 -6 -148 -39 -148 -58 0 -7 7 -8 18
-4 9 4 44 9 77 11 l60 5 -30 -17 c-42 -23 -65 -45 -65 -61 0 -8 6 -13 13 -12
6 1 23 1 37 0 23 -1 22 -3 -20 -46 -55 -56 -38 -57 58 -5 40 22 76 40 79 40 7
0 -47 -72 -61 -82 -6 -4 -7 -10 -4 -14 4 -3 25 3 48 14 l40 20 -6 -37 -6 -36
20 21 c20 21 86 56 130 69 21 6 23 5 13 -13 -17 -32 -14 -33 25 -7 36 24 54
31 54 19 0 -12 -24 -51 -49 -78 l-26 -29 40 8 c22 3 54 9 70 12 l30 5 -35 -30
c-32 -28 -33 -31 -13 -32 16 0 21 -4 17 -15 -5 -11 2 -15 27 -15 44 0 70 -16
50 -29 -11 -7 -6 -13 24 -25 20 -9 46 -16 56 -16 22 0 23 -4 9 -30 -12 -23
-27 -19 -90 26 -96 67 -216 123 -324 148 -87 21 -215 40 -223 33 -3 -4 0 -8 8
-11 49 -14 109 -38 125 -51 17 -12 13 -14 -38 -12 -35 1 -62 -3 -69 -10 -10
-11 -6 -13 23 -13 19 0 53 -8 74 -17 l39 -17 -55 -6 c-57 -6 -120 -33 -120
-51 0 -7 13 -9 36 -4 36 6 36 6 20 -17 -24 -34 -20 -39 19 -22 19 7 44 14 56
14 16 0 9 -10 -33 -44 -51 -41 -61 -45 -129 -51 -132 -12 -252 -54 -320 -111
-8 -8 -40 -27 -70 -44 -53 -29 -53 -30 -21 -30 18 0 60 11 95 25 34 14 55 19
47 12 -46 -44 -190 -163 -222 -185 -37 -24 -49 -42 -28 -42 19 0 121 50 157
77 56 42 74 56 92 73 9 8 32 26 51 40 l35 25 -30 -40 c-16 -22 -51 -66 -78
-97 -27 -32 -43 -58 -36 -58 15 0 116 77 122 93 2 7 8 9 12 4 5 -4 -2 -18 -15
-32 -13 -14 -20 -28 -17 -32 10 -10 77 47 117 100 19 25 36 44 38 42 3 -2 -10
-34 -27 -71 -40 -85 -39 -96 4 -54 19 19 35 38 35 42 0 5 16 32 35 61 45 66
44 55 -1 -39 -20 -42 -34 -78 -31 -81 3 -3 27 17 54 44 26 26 45 44 41 39 -5
-6 -8 -14 -8 -18 0 -15 18 -8 51 19 l32 27 -17 -32 c-9 -17 -16 -40 -16 -51 0
-16 -12 -24 -57 -37 -68 -21 -88 -34 -50 -34 33 0 35 -15 5 -31 -38 -19 -174
-165 -224 -241 -67 -100 -120 -236 -127 -320 -2 -38 -2 -68 2 -68 3 0 12 22
18 50 7 27 22 71 34 97 l23 48 4 -32 c4 -42 18 -42 27 -1 4 18 17 50 29 73 21
39 21 40 24 13 4 -36 19 -36 27 1 8 37 47 89 63 84 6 -3 12 1 13 9 0 7 9 31
19 53 17 39 18 40 27 16 10 -24 10 -23 33 21 12 25 33 59 45 74 l23 29 7 -50
c7 -41 5 -51 -10 -60 -38 -22 -105 -76 -105 -85 0 -4 18 0 40 11 55 27 59 24
14 -12 -22 -17 -51 -44 -67 -61 -49 -53 -75 -123 -32 -88 19 16 19 11 -1 -28
-8 -18 -19 -46 -24 -63 -8 -26 -7 -30 7 -25 12 5 13 2 7 -11 -12 -28 -18 -187
-6 -179 5 3 12 20 16 38 3 18 20 68 38 111 l32 78 12 -46 c19 -77 34 -79 34
-4 l1 64 20 -37 c11 -21 23 -38 27 -38 4 0 6 21 4 48 -3 38 -2 45 9 35 22 -22
29 -15 29 29 l0 42 17 -24 17 -24 7 24 c4 14 7 45 8 69 l1 44 19 -24 c10 -13
24 -41 32 -61 16 -45 29 -32 29 29 0 48 14 63 30 33 14 -26 30 -17 30 18 1 25
2 25 14 9 12 -15 14 -8 20 54 8 73 15 78 40 28 18 -37 36 -35 36 5 0 19 5 47
11 63 l11 28 20 -45 20 -45 16 49 c13 41 17 46 27 32 16 -21 25 -20 25 3 0 34
11 50 59 84 62 46 149 95 134 77 -6 -8 -67 -71 -134 -140 -67 -69 -147 -154
-178 -190 -80 -91 -115 -126 -211 -205 -47 -38 -94 -77 -105 -87 -11 -9 -29
-24 -40 -32 -31 -22 -11 -29 45 -16 28 7 53 10 56 7 3 -3 -20 -34 -52 -68 -32
-35 -52 -65 -46 -67 14 -4 112 48 112 60 0 4 5 8 11 8 8 0 8 -4 -1 -14 -19
-24 -40 -128 -33 -168 6 -38 23 -53 23 -20 0 19 54 179 63 189 4 3 7 -16 7
-44 0 -54 16 -113 31 -113 5 0 9 28 9 62 0 72 7 70 26 -8 13 -56 12 -59 -20
-138 l-34 -81 -586 0 c-322 0 -576 3 -564 7 22 6 22 6 2 7 -21 1 -21 2 -7 84
7 45 18 114 24 152 6 39 17 90 24 115 7 25 18 63 24 85 24 87 63 203 87 265
32 79 183 387 198 404 6 6 26 33 43 61 33 51 31 64 -12 65 -16 0 -14 4 13 21
17 12 32 25 32 29 0 4 18 15 40 24 22 9 69 36 105 62 36 25 82 53 103 62 l37
17 -52 5 -53 5 61 63 62 62 87 0 c82 0 89 1 104 25 l16 25 -60 0 c-33 0 -60 4
-60 9 0 4 28 21 63 37 l62 28 -38 4 c-36 3 -38 5 -24 20 20 22 48 108 41 125
-2 7 0 26 5 40 18 46 -10 31 -119 -62 -204 -176 -432 -437 -535 -616 -16 -27
-40 -65 -52 -83 -31 -46 -135 -252 -168 -332 -166 -405 -237 -839 -206 -1260
17 -221 20 -240 98 -577 4 -19 1 -23 -16 -23 -73 0 -184 -107 -253 -243 -28
-56 -31 -58 -56 -50 -15 4 -59 8 -98 8 -60 0 -77 -4 -111 -27 l-41 -27 5 62
c15 182 -157 274 -312 167 -92 -63 -123 -147 -161 -440 -32 -251 -14 -912 30
-1076 21 -78 58 -144 100 -178 34 -28 45 -31 104 -31 57 0 74 4 113 29 77 49
116 125 126 248 3 38 10 68 14 68 5 0 9 -4 9 -9 0 -15 78 -41 126 -41 79 0
148 50 194 141 11 21 21 49 21 61 1 13 10 -34 20 -105 38 -262 85 -350 201
-372 51 -10 136 17 175 55 53 52 73 105 73 195 0 61 3 76 12 67 7 -7 21 -12
31 -12 21 0 21 3 -3 -115 -39 -192 86 -366 245 -340 62 9 164 72 228 139 l57
60 0 -236 c0 -235 0 -235 24 -261 13 -14 36 -29 51 -33 42 -10 154 3 196 24
26 13 42 16 55 9 24 -14 181 1 218 20 17 9 36 23 42 30 9 13 15 13 50 -2 87
-37 228 -18 326 44 l44 28 29 -25 c27 -23 33 -24 110 -18 82 7 178 20 274 37
30 5 75 9 100 9 25 0 114 10 196 21 83 11 198 24 257 29 142 13 175 32 207
121 7 21 18 28 45 31 32 4 35 2 40 -27 4 -18 17 -42 31 -55 23 -22 30 -23 123
-17 89 5 236 22 401 46 48 7 71 16 92 37 16 15 29 34 29 41 0 7 7 13 15 13 8
0 15 -5 15 -10 0 -6 15 -19 33 -30 36 -22 103 -26 177 -9 25 6 88 12 141 14
102 5 151 20 186 57 34 36 43 72 43 171 0 62 5 99 14 112 33 48 146 280 146
301 0 15 11 29 33 43 39 24 124 112 152 156 10 17 20 32 22 34 1 2 21 -13 44
-34 53 -47 96 -65 158 -65 55 0 89 12 137 47 l31 23 17 -25 c46 -70 191 -87
275 -32 53 36 93 99 99 160 4 44 6 47 33 47 45 0 126 35 174 75 l45 36 30 -35
c17 -19 52 -47 78 -63 40 -24 57 -28 122 -28 59 0 84 5 119 24 131 69 221 232
305 554 32 122 32 153 2 198 -23 34 -75 59 -122 59 -17 0 -19 6 -16 49 18 255
-207 390 -406 244 -30 -23 -33 -23 -49 -7 -64 63 -202 55 -274 -17 -31 -31
-34 -16 -18 83 22 142 23 238 1 289 -20 47 -75 99 -104 99 -13 0 -16 33 -21
218 -6 230 -26 396 -73 592 -25 106 -75 269 -99 325 -7 17 -16 41 -20 55 -8
29 -153 324 -192 390 -30 52 -133 208 -156 236 -165 205 -280 328 -412 441
-575 494 -1281 722 -2045 661z m-563 -682 l54 -23 -67 -1 c-69 -1 -93 11 -94
47 0 16 30 10 107 -23z m1 -76 c17 -11 32 -22 32 -25 0 -3 -17 -5 -38 -5 -32
0 -41 5 -50 25 -10 21 -9 25 6 25 9 0 32 -9 50 -20z m30 -129 c6 -42 -29 -19
-43 29 -7 24 -7 24 16 8 13 -8 25 -25 27 -37z m425 28 c-15 -15 -27 -19 -40
-14 -16 6 -14 9 12 21 44 19 52 17 28 -7z m-54 -56 c-25 -31 -123 -128 -114
-113 51 88 88 130 113 130 12 0 12 -3 1 -17z m-1064 -83 c-17 -11 -47 -20 -69
-20 -50 0 -41 9 26 26 73 17 77 17 43 -6z m1160 -90 c-28 -12 -37 -12 -30 0 3
6 16 10 28 9 21 0 21 -1 2 -9z m-1181 -174 c-18 -32 -36 -48 -66 -60 -22 -9
-43 -15 -45 -12 -9 9 110 116 129 116 4 0 -4 -20 -18 -44z m80 11 c-5 -15 -33
-31 -40 -24 -2 2 6 14 17 26 23 24 33 23 23 -2z m1315 -23 c8 -7 -54 -2 -79 6
-17 6 -9 7 25 3 28 -3 52 -7 54 -9z m-223 -261 c-13 -14 -25 9 -13 28 12 20
12 20 15 -1 2 -12 1 -24 -2 -27z m70 -11 c-9 -23 -11 -42 -6 -42 4 0 11 6 13
13 3 6 6 2 6 -11 1 -19 -2 -21 -17 -13 -10 5 -25 17 -32 26 -11 13 -9 20 15
45 16 17 30 28 32 26 2 -1 -3 -22 -11 -44z m-1261 -3 c0 -32 -3 -35 -45 -45
-25 -6 -46 -10 -48 -9 -8 7 30 65 50 79 31 22 43 15 43 -25z m740 -43 c-4 -23
-18 -63 -31 -90 l-24 -48 25 4 c31 6 31 -2 0 -64 -30 -60 -30 -61 -5 -53 25 8
18 -13 -22 -70 -30 -40 -25 -55 11 -35 20 10 20 10 3 -20 -9 -16 -20 -30 -24
-30 -5 0 -8 -4 -8 -10 0 -5 7 -10 16 -10 13 0 13 -4 -2 -30 -10 -16 -29 -41
-41 -55 l-24 -25 36 0 c19 0 35 -3 35 -7 -2 -29 -65 -103 -119 -138 -35 -24
-40 -30 -26 -38 22 -12 82 0 115 22 50 35 53 35 36 2 -9 -17 -30 -47 -48 -66
-17 -20 -28 -38 -25 -41 6 -6 43 14 75 40 12 11 22 14 22 8 0 -6 -6 -15 -12
-19 -7 -4 -18 -17 -24 -28 -12 -21 -29 -22 -116 -7 -27 5 -48 6 -47 3 0 -3 33
-22 72 -42 121 -61 111 -65 -150 -61 -125 2 -230 6 -232 8 -5 4 16 62 58 157
12 26 30 68 42 95 11 26 31 70 44 97 13 28 38 82 55 120 76 167 95 206 144
305 29 58 62 124 74 146 l21 41 51 -10 51 -10 -6 -41z m204 -97 c-14 -67 -29
-86 -30 -38 -2 49 1 62 19 82 22 25 24 17 11 -44z m61 -26 c-3 -21 -20 -67
-36 -103 l-29 -64 -8 47 c-7 46 -6 50 35 102 24 30 43 55 44 55 1 0 -2 -17 -6
-37z m61 -159 c-25 -79 -25 -80 -5 -63 26 21 72 94 93 145 11 27 20 40 20 29
0 -35 -25 -140 -42 -175 -24 -46 -14 -49 28 -7 32 32 35 33 35 14 0 -12 -7
-34 -14 -49 -13 -25 -13 -28 1 -28 9 0 25 7 35 17 17 15 18 14 18 -30 0 -25
-5 -58 -10 -73 -14 -36 -3 -45 21 -15 l19 23 -6 -33 c-9 -52 -34 -128 -45
-134 -5 -4 -9 -14 -9 -23 0 -12 10 -6 35 20 19 21 35 35 35 32 0 -19 -51 -97
-91 -142 -27 -30 -49 -59 -50 -65 0 -7 -4 -2 -9 11 -7 15 -5 37 4 65 18 55 28
150 16 142 -6 -4 -10 -11 -10 -16 0 -6 -6 -17 -12 -24 -30 -33 -38 -45 -38
-55 0 -5 -4 -10 -10 -10 -5 0 -10 16 -10 36 0 21 -4 33 -10 29 -5 -3 -10 0
-10 7 0 8 -8 21 -19 30 -10 8 -21 22 -23 29 -3 8 -8 11 -12 8 -4 -3 9 -54 29
-113 36 -109 43 -160 24 -172 -18 -11 -26 13 -32 98 -3 44 -8 82 -11 85 -11
11 -18 -5 -19 -46 -1 -27 -6 -40 -14 -37 -6 3 -13 1 -15 -4 -2 -5 -12 -1 -24
8 -20 17 -20 18 -3 117 10 56 18 153 18 221 l1 120 45 47 c24 26 55 66 67 89
l23 43 3 -42 c2 -23 -6 -72 -17 -109z m388 72 c1 -33 -1 -37 -14 -26 -16 13
-19 40 -8 79 6 23 7 23 14 5 4 -10 8 -36 8 -58z m-1242 -318 c-3 -8 -6 -5 -6
6 -1 11 2 17 5 13 3 -3 4 -12 1 -19z m-17 -66 c0 -15 -2 -15 -10 -2 -13 20
-13 33 0 25 6 -3 10 -14 10 -23z m-39 -69 c-9 -15 -10 -12 -10 17 0 29 1 32
10 18 7 -12 7 -24 0 -35z m549 -183 c0 -5 -5 -10 -11 -10 -5 0 -7 5 -4 10 3 6
8 10 11 10 2 0 4 -4 4 -10z m-1347 -67 c-68 -2 -178 -2 -245 0 -68 1 -13 3
122 3 135 0 190 -2 123 -3z m570 -10 c-67 -2 -179 -2 -250 0 -70 1 -15 3 122
3 138 0 195 -2 128 -3z m565 0 c-53 -2 -143 -2 -200 0 -57 1 -13 3 97 3 110 0
156 -2 103 -3z m230 -10 c-10 -2 -28 -2 -40 0 -13 2 -5 4 17 4 22 1 32 -1 23
-4z m895 -10 c-72 -2 -194 -2 -270 0 -76 1 -16 3 132 3 149 0 211 -2 138 -3z
m1555 -20 c-10 -2 -26 -2 -35 0 -10 3 -2 5 17 5 19 0 27 -2 18 -5z m885 -10
c-40 -2 -106 -2 -145 0 -40 1 -8 3 72 3 80 0 112 -2 73 -3z m187 -491 c32 -26
34 -79 11 -237 -17 -123 -28 -232 -46 -500 -4 -58 -3 -67 8 -52 6 10 36 55 66
100 80 122 199 267 229 278 36 14 66 4 80 -26 17 -36 0 -68 -79 -157 -37 -40
-96 -111 -131 -158 -35 -47 -81 -107 -101 -133 -20 -27 -37 -53 -37 -58 0 -15
78 -129 113 -166 68 -73 125 -30 224 169 47 94 63 137 68 183 17 163 92 317
177 361 80 42 160 -14 174 -120 14 -100 -74 -314 -176 -425 -25 -29 -30 -40
-24 -65 16 -75 65 -136 107 -136 26 0 83 64 116 130 15 30 45 103 66 163 33
95 49 119 67 102 3 -3 -1 -29 -8 -58 -48 -192 -78 -279 -125 -364 -57 -102
-97 -133 -172 -133 -81 0 -149 82 -187 228 l-17 66 -42 -81 c-23 -44 -63 -104
-89 -133 -43 -48 -52 -53 -98 -57 -60 -6 -95 9 -160 69 -25 23 -47 39 -50 36
-3 -3 2 -53 10 -111 23 -152 21 -193 -9 -222 -14 -15 -36 -25 -52 -25 -70 0
-97 59 -108 241 -7 102 -22 193 -24 146 -1 -24 -56 -167 -97 -253 -42 -88 -64
-109 -116 -109 -33 0 -46 7 -73 37 -58 63 -68 115 -73 363 -5 312 14 450 69
489 31 21 82 20 102 -2 35 -39 37 -66 17 -224 -36 -279 -38 -438 -6 -438 32 0
86 100 146 268 l40 114 0 201 c0 197 19 468 41 575 7 35 22 66 42 89 48 54 89
66 127 35z m-883 -114 c27 -25 29 -58 7 -119 -72 -203 -124 -548 -124 -829 0
-260 32 -429 82 -430 29 0 152 160 243 317 30 51 65 55 65 8 0 -13 -4 -26 -9
-29 -5 -3 -12 -18 -16 -33 -12 -52 -113 -248 -158 -309 -58 -79 -120 -112
-176 -95 -46 13 -70 39 -109 116 -31 60 -54 143 -68 245 l-7 55 -18 -52 c-25
-73 -75 -164 -116 -212 -82 -96 -194 -67 -263 69 -41 80 -54 157 -54 310 1
163 16 245 63 339 54 106 106 151 176 151 63 0 115 -74 115 -164 0 -89 -78
-271 -160 -373 l-49 -61 16 -49 c20 -61 58 -113 84 -113 55 0 117 83 173 233
35 94 36 99 36 242 0 279 65 688 122 768 37 52 99 58 145 15z m509 -25 c24
-35 24 -145 0 -248 -23 -100 -34 -121 -68 -138 -35 -17 -55 -13 -80 16 -25 28
-31 75 -26 181 8 142 48 216 119 216 29 0 41 -6 55 -27z m-1511 -98 c84 -48
111 -121 102 -273 -6 -106 -41 -227 -102 -347 l-33 -65 34 6 c67 12 139 -33
163 -105 29 -88 3 -207 -82 -378 -118 -239 -315 -415 -428 -383 -72 21 -115
76 -106 135 9 53 48 124 100 181 54 60 53 50 21 174 -21 86 -30 381 -15 493
38 271 76 353 154 334 47 -12 50 -46 17 -173 -29 -111 -60 -357 -47 -370 11
-12 44 37 102 151 68 132 101 268 91 375 -8 90 -27 114 -96 118 -78 5 -162
-40 -259 -137 -112 -112 -156 -172 -219 -296 -67 -133 -102 -282 -102 -436 0
-63 -15 -85 -53 -75 -21 5 -25 0 -44 -62 -55 -175 -114 -283 -177 -321 -121
-75 -243 47 -276 277 -7 45 -14 82 -15 82 -2 0 -24 -20 -49 -43 -25 -24 -65
-52 -88 -62 -24 -11 -44 -20 -46 -21 -1 -1 15 -35 37 -75 47 -86 71 -204 70
-333 -1 -128 -11 -175 -48 -208 -39 -35 -61 -35 -100 -2 -72 60 -133 248 -147
454 -5 57 -10 87 -14 75 -70 -192 -106 -271 -140 -306 -40 -42 -64 -48 -110
-24 -79 41 -109 152 -110 408 0 293 23 437 75 471 52 34 114 8 130 -54 3 -14
-3 -97 -14 -185 -36 -294 -38 -425 -5 -425 34 0 87 95 149 269 27 75 39 131
46 205 31 331 65 464 136 531 34 31 81 33 111 5 26 -24 28 -65 8 -115 -42
-101 -121 -486 -114 -557 2 -27 8 -34 30 -36 37 -4 95 28 149 85 44 45 47 53
58 126 27 190 115 341 210 362 66 14 141 -70 141 -159 0 -92 -75 -272 -153
-368 -24 -29 -46 -58 -50 -64 -9 -15 19 -104 41 -130 32 -38 58 -46 92 -29 16
9 30 19 30 23 0 5 9 17 19 29 25 26 59 93 82 162 17 48 18 62 8 113 -30 152
66 435 222 653 200 279 454 411 614 320z m-2334 -242 c47 -28 52 -61 23 -145
-99 -288 -150 -786 -108 -1066 20 -134 35 -172 67 -172 35 0 76 46 167 185
101 154 114 170 128 161 15 -9 16 -50 2 -74 -5 -9 -32 -67 -60 -129 -150 -336
-298 -393 -405 -158 -35 75 -54 167 -61 296 l-7 107 -52 -69 -52 -68 -7 -138
c-11 -221 -49 -378 -112 -461 -35 -45 -131 -105 -168 -105 -60 0 -113 97 -100
185 12 79 64 194 139 309 73 111 75 115 74 174 -1 84 -22 216 -34 213 -5 -2
-34 -74 -63 -161 -77 -233 -98 -267 -163 -267 -59 0 -104 45 -130 132 -19 62
-21 86 -16 231 5 165 31 328 63 388 21 42 57 62 94 54 48 -11 57 -41 36 -123
-10 -37 -24 -103 -32 -147 -16 -87 -24 -358 -11 -371 13 -13 33 18 62 95 48
128 84 261 95 348 16 125 57 193 118 193 57 0 103 -104 123 -280 6 -52 13
-111 16 -130 l5 -35 58 61 57 61 6 164 c10 272 60 588 110 687 33 67 83 87
138 55z m525 -34 c44 -48 8 -336 -47 -381 -31 -26 -71 -22 -100 8 -23 24 -24
32 -23 142 0 100 3 125 23 170 13 29 33 59 45 67 30 22 80 19 102 -6z m-1608
-142 c27 -40 27 -43 26 -201 0 -89 -6 -233 -12 -321 -14 -183 -15 -564 -3
-675 5 -41 15 -113 22 -160 10 -72 10 -90 -2 -115 -13 -27 -19 -30 -58 -30
-39 0 -46 4 -62 32 -18 33 -38 118 -60 258 -15 99 -16 564 -1 725 22 235 25
323 11 318 -31 -10 -105 -180 -150 -343 -69 -253 -97 -373 -134 -589 -16 -96
-40 -136 -80 -136 -28 0 -63 34 -83 79 -22 52 -27 239 -12 474 7 109 10 201 6
204 -21 22 -77 -109 -116 -271 -43 -179 -68 -345 -80 -528 -12 -177 -22 -223
-50 -238 -34 -18 -77 -12 -99 15 -48 62 -81 367 -81 745 0 231 14 408 45 554
29 141 52 176 117 176 32 0 40 -5 54 -31 13 -26 14 -39 5 -76 -13 -50 -37
-205 -51 -333 -14 -127 -23 -476 -13 -545 l8 -60 19 100 c62 339 93 459 142
563 63 130 138 189 205 162 56 -24 64 -55 62 -245 -3 -172 3 -190 26 -80 48
233 168 517 248 588 53 46 114 40 151 -16z m4332 -1141 c0 -2 -20 -40 -44 -84
-112 -202 -116 -212 -116 -317 l0 -95 -29 0 c-16 0 -43 -3 -60 -6 l-31 -6 0
95 0 95 -80 133 c-44 73 -77 136 -72 140 4 4 34 10 67 14 l60 6 40 -80 c21
-45 42 -81 45 -81 3 0 23 40 45 90 42 97 41 95 133 99 23 0 42 -1 42 -3z
m-489 -281 c49 -121 89 -226 89 -232 0 -8 -12 -13 -29 -13 -16 0 -42 -3 -59
-6 -27 -6 -32 -3 -38 19 -10 44 -26 50 -114 42 l-80 -7 -19 -42 c-18 -41 -21
-43 -72 -49 -29 -4 -55 -4 -57 -2 -3 3 14 55 37 117 23 62 63 172 88 243 25
72 48 132 50 134 4 6 84 19 101 17 8 0 52 -95 103 -221z m-601 -21 l0 -186 28
6 c15 3 57 8 95 12 l67 6 0 -56 c0 -50 -2 -56 -22 -60 -28 -6 -233 -29 -268
-30 l-25 -1 -3 220 c-1 121 0 230 3 242 5 21 16 25 103 31 l22 2 0 -186z
m-235 115 c71 -63 67 -161 -10 -235 -42 -41 -78 -54 -152 -54 l-33 0 0 -85 c0
-95 3 -92 -85 -97 l-40 -3 -3 238 c-2 185 0 239 10 242 22 8 151 22 215 24 56
1 66 -2 98 -30z m-407 -61 l-3 -53 -50 -6 c-27 -4 -76 -10 -107 -14 l-58 -6 0
-40 0 -40 48 6 c26 3 64 8 85 11 l37 6 0 -50 0 -50 -82 -8 -83 -9 -3 -44 -3
-44 38 6 c21 3 73 9 116 13 l77 7 0 -57 c0 -47 -3 -56 -17 -56 -29 0 -275 -29
-310 -36 l-33 -6 0 245 0 245 118 12 c64 6 122 13 127 15 6 2 32 4 58 4 l48 1
-3 -52z m-910 -92 c62 -43 96 -107 96 -181 -1 -184 -176 -321 -347 -271 -58
17 -118 70 -138 124 -12 30 -14 131 -4 164 16 47 69 120 108 147 62 42 94 51
173 48 60 -2 78 -7 112 -31z m-518 -43 c78 -54 86 -152 20 -234 l-31 -40 46
-80 c26 -45 44 -84 40 -87 -12 -13 -120 -20 -132 -8 -6 6 -27 38 -45 71 -27
47 -39 61 -61 63 l-27 3 0 -73 c0 -40 -4 -78 -8 -84 -4 -7 -32 -13 -62 -15
l-55 -4 -3 238 c-2 185 0 239 10 242 23 9 151 22 218 24 47 1 73 -4 90 -16z
m780 -53 l30 0 0 -96 0 -96 83 7 c45 4 87 8 92 9 6 0 11 -24 13 -55 l3 -56
-108 -12 c-59 -6 -132 -14 -160 -17 l-53 -6 0 175 0 176 35 -15 c19 -7 48 -14
65 -14z"/>
<path d="M8308 4274 c-42 -78 -76 -244 -50 -244 29 0 74 139 70 217 l-3 58
-17 -31z"/>
<path d="M6299 4045 c-35 -66 -64 -200 -50 -237 6 -18 10 -14 28 28 34 80 45
126 41 184 l-3 55 -16 -30z"/>
<path d="M4752 3857 c-29 -59 -59 -196 -48 -222 7 -17 13 -11 37 39 31 66 42
119 37 185 l-3 44 -23 -46z"/>
<path d="M5752 3785 c-42 -18 -83 -53 -127 -105 -32 -38 -34 -44 -28 -93 3
-29 7 -54 9 -56 4 -5 182 119 216 151 30 29 35 53 16 93 -13 29 -36 31 -86 10z"/>
<path d="M5710 3514 c-133 -97 -244 -231 -222 -269 16 -30 144 74 221 181 34
47 74 124 69 130 -3 2 -33 -17 -68 -42z"/>
<path d="M4330 3198 c1 -66 24 -200 39 -225 9 -14 10 0 5 62 -6 78 -31 215
-40 215 -2 0 -4 -24 -4 -52z"/>
<path d="M2913 2937 c-42 -62 -69 -163 -54 -201 7 -17 8 -17 22 5 27 43 48
105 55 168 3 33 5 61 3 61 -2 0 -14 -15 -26 -33z"/>
<path d="M6070 2764 c-11 -36 -20 -68 -20 -70 0 -8 79 -4 84 5 5 8 -32 131
-40 131 -2 0 -12 -30 -24 -66z"/>
<path d="M5210 2734 l0 -57 41 6 c47 6 79 31 79 62 0 33 -20 45 -72 45 l-48 0
0 -56z"/>
<path d="M3865 2599 c-76 -67 -65 -191 20 -219 40 -13 93 -2 124 27 48 44 62
138 28 184 -37 49 -120 53 -172 8z"/>
<path d="M3398 2583 c-15 -4 -18 -16 -18 -63 l0 -58 43 5 c43 5 87 40 87 69 0
39 -55 62 -112 47z"/>
<path d="M3821 7676 l-23 -13 33 -24 c19 -13 42 -33 51 -45 12 -15 25 -20 38
-17 23 6 24 12 10 45 -23 55 -66 77 -109 54z"/>
<path d="M4424 7614 c3 -9 6 -20 6 -25 0 -5 39 -9 88 -9 75 0 90 3 105 20 9
11 17 22 17 25 0 3 -50 5 -111 5 -97 0 -110 -2 -105 -16z"/>
<path d="M4470 7350 c0 -24 35 -28 44 -4 9 23 8 24 -19 24 -18 0 -25 -5 -25
-20z"/>
<path d="M4886 7355 c4 -8 10 -15 14 -15 4 0 13 7 20 15 11 13 8 15 -13 15
-19 0 -25 -4 -21 -15z"/>
</g>
</svg>
